<svg xmlns="http://www.w3.org/2000/svg" width="1600" height="900" viewBox="0 0 1600 900">
  <defs>
    <linearGradient id="bg" x1="0" y1="0" x2="1" y2="1">
      <stop offset="0%" stop-color="#020617" />
      <stop offset="100%" stop-color="#0b1220" />
    </linearGradient>
    <linearGradient id="accent" x1="0" y1="0" x2="1" y2="0">
      <stop offset="0%" stop-color="#22d3ee" stop-opacity="0.9" />
      <stop offset="100%" stop-color="#34d399" stop-opacity="0.85" />
    </linearGradient>
  </defs>
  <rect width="100%" height="100%" fill="url(#bg)" />
  <g opacity="0.65">
    <rect x="110" y="120" width="1380" height="660" rx="28" fill="rgba(148,163,184,0.06)" stroke="rgba(148,163,184,0.18)" />
    <path d="M180 210 H1420" stroke="rgba(148,163,184,0.18)" stroke-width="2" />
    <path d="M180 270 H1420" stroke="rgba(148,163,184,0.12)" stroke-width="2" />
    <path d="M180 330 H1420" stroke="rgba(148,163,184,0.10)" stroke-width="2" />
  </g>

  <g>
    <rect x="200" y="420" width="360" height="150" rx="18" fill="rgba(255,255,255,0.03)" stroke="rgba(34,211,238,0.35)" />
    <rect x="640" y="420" width="360" height="150" rx="18" fill="rgba(255,255,255,0.03)" stroke="rgba(52,211,153,0.30)" />
    <rect x="1080" y="420" width="320" height="150" rx="18" fill="rgba(255,255,255,0.03)" stroke="rgba(251,113,133,0.28)" />

    <path d="M560 495 H640" stroke="url(#accent)" stroke-width="4" />
    <path d="M1000 495 H1080" stroke="url(#accent)" stroke-width="4" />
    <circle cx="560" cy="495" r="6" fill="#22d3ee" />
    <circle cx="640" cy="495" r="6" fill="#34d399" />
    <circle cx="1000" cy="495" r="6" fill="#22d3ee" />
    <circle cx="1080" cy="495" r="6" fill="#34d399" />
  </g>

  <g opacity="0.55">
    <rect x="230" y="610" width="1170" height="130" rx="22" fill="rgba(255,255,255,0.02)" stroke="rgba(148,163,184,0.16)" />
    <path d="M260 700 C 420 635, 520 720, 690 680 S 980 640, 1160 690 S 1360 640, 1380 620" fill="none" stroke="rgba(34,211,238,0.55)" stroke-width="4" />
  </g>
</svg>

