<svg width="1600" height="900" viewBox="0 0 1600 900" fill="none" xmlns="http://www.w3.org/2000/svg">
  <defs>
    <linearGradient id="bg" x1="0" y1="0" x2="1600" y2="900" gradientUnits="userSpaceOnUse">
      <stop stop-color="#04101F"/>
      <stop offset="1" stop-color="#060C17"/>
    </linearGradient>
    <linearGradient id="accent" x1="120" y1="120" x2="1460" y2="740" gradientUnits="userSpaceOnUse">
      <stop stop-color="#22D3EE" stop-opacity="0.9"/>
      <stop offset="1" stop-color="#34D399" stop-opacity="0.8"/>
    </linearGradient>
  </defs>
  <rect width="1600" height="900" rx="42" fill="url(#bg)"/>
  <g opacity="0.36" stroke="#6B7280" stroke-width="1">
    <path d="M120 160H1480"/>
    <path d="M120 250H1480"/>
    <path d="M120 340H1480"/>
    <path d="M120 430H1480"/>
    <path d="M120 520H1480"/>
    <path d="M120 610H1480"/>
    <path d="M120 700H1480"/>
    <path d="M120 160V740"/>
    <path d="M300 160V740"/>
    <path d="M480 160V740"/>
    <path d="M660 160V740"/>
    <path d="M840 160V740"/>
    <path d="M1020 160V740"/>
    <path d="M1200 160V740"/>
    <path d="M1380 160V740"/>
  </g>
  <g opacity="0.72">
    <rect x="290" y="320" width="150" height="230" rx="20" fill="#22D3EE" fill-opacity="0.26"/>
    <rect x="470" y="260" width="150" height="290" rx="20" fill="#38BDF8" fill-opacity="0.2"/>
    <rect x="650" y="230" width="150" height="320" rx="20" fill="#22D3EE" fill-opacity="0.28"/>
    <rect x="830" y="280" width="150" height="270" rx="20" fill="#34D399" fill-opacity="0.26"/>
    <rect x="1010" y="340" width="150" height="210" rx="20" fill="#F43F5E" fill-opacity="0.22"/>
    <rect x="1190" y="300" width="150" height="250" rx="20" fill="#22D3EE" fill-opacity="0.3"/>
  </g>
  <path d="M180 620C310 560 400 580 510 530C620 480 650 400 760 380C870 360 940 430 1060 410C1180 390 1280 320 1420 350"
    stroke="url(#accent)" stroke-width="8" stroke-linecap="round" stroke-linejoin="round"/>
  <path d="M180 680C320 650 420 630 560 620C700 610 780 620 900 590C1020 560 1130 500 1250 520C1330 533 1380 570 1420 610"
    stroke="#F43F5E" stroke-opacity="0.76" stroke-width="5" stroke-dasharray="16 12" stroke-linecap="round"/>
  <g fill="#E2E8F0" fill-opacity="0.75">
    <circle cx="510" cy="530" r="9"/>
    <circle cx="760" cy="380" r="9"/>
    <circle cx="1060" cy="410" r="9"/>
    <circle cx="1250" cy="520" r="9"/>
  </g>
</svg>
