<svg width="1600" height="900" viewBox="0 0 1600 900" fill="none" xmlns="http://www.w3.org/2000/svg">
  <defs>
    <linearGradient id="bg" x1="0" y1="0" x2="1600" y2="900" gradientUnits="userSpaceOnUse">
      <stop stop-color="#11120D"/>
      <stop offset="1" stop-color="#090B0D"/>
    </linearGradient>
    <radialGradient id="hot" cx="0" cy="0" r="1" gradientUnits="userSpaceOnUse" gradientTransform="translate(660 450) rotate(90) scale(300)">
      <stop stop-color="#F59E0B" stop-opacity="0.42"/>
      <stop offset="1" stop-color="#F59E0B" stop-opacity="0"/>
    </radialGradient>
  </defs>
  <rect width="1600" height="900" rx="42" fill="url(#bg)"/>
  <rect x="220" y="170" width="1160" height="560" rx="26" stroke="#64748B" stroke-opacity="0.45" stroke-width="2"/>
  <rect x="280" y="230" width="450" height="220" rx="18" stroke="#94A3B8" stroke-opacity="0.35"/>
  <rect x="770" y="230" width="280" height="220" rx="18" stroke="#94A3B8" stroke-opacity="0.35"/>
  <rect x="1080" y="230" width="240" height="220" rx="18" stroke="#94A3B8" stroke-opacity="0.35"/>
  <rect x="280" y="490" width="320" height="180" rx="18" stroke="#94A3B8" stroke-opacity="0.35"/>
  <rect x="630" y="490" width="320" height="180" rx="18" stroke="#94A3B8" stroke-opacity="0.35"/>
  <rect x="980" y="490" width="340" height="180" rx="18" stroke="#94A3B8" stroke-opacity="0.35"/>
  <circle cx="660" cy="450" r="290" fill="url(#hot)"/>
  <circle cx="1110" cy="580" r="160" fill="#F43F5E" fill-opacity="0.22"/>
  <circle cx="480" cy="330" r="140" fill="#22D3EE" fill-opacity="0.2"/>
  <g stroke="#F59E0B" stroke-width="4" stroke-linecap="round" stroke-dasharray="8 10">
    <path d="M350 320H670"/>
    <path d="M350 590H560"/>
    <path d="M1030 580H1250"/>
  </g>
  <g fill="#F8FAFC">
    <circle cx="380" cy="320" r="9"/>
    <circle cx="560" cy="320" r="9"/>
    <circle cx="660" cy="450" r="10"/>
    <circle cx="1030" cy="580" r="9"/>
    <circle cx="1250" cy="580" r="9"/>
  </g>
</svg>
