<svg xmlns="http://www.w3.org/2000/svg" width="1600" height="900" viewBox="0 0 1600 900">
  <defs>
    <radialGradient id="bg" cx="48%" cy="38%" r="90%">
      <stop offset="0%" stop-color="#120a12" />
      <stop offset="100%" stop-color="#020617" />
    </radialGradient>
  </defs>
  <rect width="100%" height="100%" fill="url(#bg)" />
  <rect x="110" y="120" width="1380" height="660" rx="28" fill="rgba(148,163,184,0.06)" stroke="rgba(251,113,133,0.20)" />

  <g stroke="rgba(251,191,36,0.40)" stroke-width="2" fill="none">
    <path d="M420 500 L620 380 L860 520 L1120 360 L1280 520" />
    <path d="M420 500 L860 520" />
    <path d="M620 380 L1120 360" />
    <path d="M860 520 L1120 360" />
  </g>

  <g>
    <circle cx="420" cy="500" r="16" fill="rgba(251,113,133,0.85)" />
    <circle cx="620" cy="380" r="14" fill="rgba(251,191,36,0.85)" />
    <circle cx="860" cy="520" r="18" fill="rgba(251,113,133,0.82)" />
    <circle cx="1120" cy="360" r="16" fill="rgba(251,191,36,0.85)" />
    <circle cx="1280" cy="520" r="12" fill="rgba(148,163,184,0.75)" />
  </g>

  <g opacity="0.6">
    <rect x="230" y="610" width="1170" height="120" rx="22" fill="rgba(255,255,255,0.02)" stroke="rgba(148,163,184,0.16)" />
    <path d="M260 700 C 390 670, 520 715, 650 690 S 900 640, 1080 665 S 1260 740, 1380 700" fill="none" stroke="rgba(251,113,133,0.55)" stroke-width="4" />
  </g>
</svg>

