<svg width="1600" height="900" viewBox="0 0 1600 900" fill="none" xmlns="http://www.w3.org/2000/svg">
  <defs>
    <radialGradient id="bg" cx="0" cy="0" r="1" gradientUnits="userSpaceOnUse" gradientTransform="translate(820 410) rotate(90) scale(560 920)">
      <stop stop-color="#180A10"/>
      <stop offset="1" stop-color="#06090F"/>
    </radialGradient>
    <radialGradient id="sweep" cx="0" cy="0" r="1" gradientUnits="userSpaceOnUse" gradientTransform="translate(820 430) rotate(90) scale(360 360)">
      <stop stop-color="#FB7185" stop-opacity="0.26"/>
      <stop offset="1" stop-color="#FB7185" stop-opacity="0"/>
    </radialGradient>
  </defs>
  <rect width="1600" height="900" rx="42" fill="url(#bg)"/>
  <circle cx="820" cy="430" r="320" stroke="#475569" stroke-opacity="0.4"/>
  <circle cx="820" cy="430" r="250" stroke="#64748B" stroke-opacity="0.35"/>
  <circle cx="820" cy="430" r="180" stroke="#94A3B8" stroke-opacity="0.32"/>
  <circle cx="820" cy="430" r="110" stroke="#CBD5E1" stroke-opacity="0.28"/>
  <circle cx="820" cy="430" r="320" fill="url(#sweep)"/>
  <path d="M820 430L1085 170" stroke="#FB7185" stroke-width="6" stroke-linecap="round"/>
  <g stroke="#334155" stroke-width="2" opacity="0.7">
    <path d="M220 180L520 300L780 230L1010 320L1320 190"/>
    <path d="M260 640L510 530L740 590L1020 520L1300 670"/>
    <path d="M420 760L620 610L840 680L1110 610L1340 760"/>
    <path d="M260 280L400 470L580 420L720 560L860 500L980 620L1160 560L1300 680"/>
  </g>
  <g fill="#F8FAFC">
    <circle cx="520" cy="300" r="10"/>
    <circle cx="780" cy="230" r="8"/>
    <circle cx="1010" cy="320" r="11"/>
    <circle cx="510" cy="530" r="11"/>
    <circle cx="1020" cy="520" r="12"/>
    <circle cx="1160" cy="560" r="10"/>
  </g>
  <g fill="#FB7185">
    <circle cx="820" cy="430" r="13"/>
    <circle cx="1085" cy="170" r="10"/>
    <circle cx="1320" cy="190" r="9"/>
  </g>
</svg>
