<svg width="1600" height="900" viewBox="0 0 1600 900" fill="none" xmlns="http://www.w3.org/2000/svg">
  <defs>
    <linearGradient id="bg" x1="0" y1="0" x2="1600" y2="900" gradientUnits="userSpaceOnUse">
      <stop stop-color="#0E0C12"/>
      <stop offset="1" stop-color="#080B10"/>
    </linearGradient>
    <linearGradient id="frontier" x1="220" y1="690" x2="1360" y2="220" gradientUnits="userSpaceOnUse">
      <stop stop-color="#FB7185"/>
      <stop offset="0.5" stop-color="#F59E0B"/>
      <stop offset="1" stop-color="#22D3EE"/>
    </linearGradient>
  </defs>
  <rect width="1600" height="900" rx="42" fill="url(#bg)"/>
  <rect x="220" y="190" width="1160" height="520" rx="24" stroke="#64748B" stroke-opacity="0.45"/>
  <g opacity="0.5" stroke="#475569" stroke-width="1">
    <path d="M220 620H1380"/>
    <path d="M220 530H1380"/>
    <path d="M220 440H1380"/>
    <path d="M220 350H1380"/>
    <path d="M220 260H1380"/>
    <path d="M320 710V190"/>
    <path d="M460 710V190"/>
    <path d="M600 710V190"/>
    <path d="M740 710V190"/>
    <path d="M880 710V190"/>
    <path d="M1020 710V190"/>
    <path d="M1160 710V190"/>
    <path d="M1300 710V190"/>
  </g>
  <path d="M260 650C380 620 500 590 620 520C740 450 810 390 930 350C1050 310 1200 260 1320 250"
    stroke="url(#frontier)" stroke-width="8" stroke-linecap="round"/>
  <g>
    <circle cx="420" cy="600" r="46" fill="#FB7185" fill-opacity="0.32"/>
    <circle cx="650" cy="500" r="62" fill="#F59E0B" fill-opacity="0.32"/>
    <circle cx="860" cy="410" r="36" fill="#22D3EE" fill-opacity="0.34"/>
    <circle cx="1080" cy="320" r="70" fill="#E2E8F0" fill-opacity="0.2"/>
    <circle cx="1240" cy="260" r="52" fill="#34D399" fill-opacity="0.28"/>
  </g>
  <g fill="#F8FAFC">
    <circle cx="620" cy="520" r="10"/>
    <circle cx="930" cy="350" r="10"/>
    <circle cx="1320" cy="250" r="10"/>
  </g>
</svg>
