<svg xmlns="http://www.w3.org/2000/svg" width="1600" height="900" viewBox="0 0 1600 900">
  <defs>
    <linearGradient id="bg" x1="0" y1="0" x2="1" y2="1">
      <stop offset="0%" stop-color="#031116" />
      <stop offset="100%" stop-color="#0a1a14" />
    </linearGradient>
  </defs>
  <rect width="100%" height="100%" fill="url(#bg)" />
  <rect x="110" y="120" width="1380" height="660" rx="28" fill="rgba(148,163,184,0.06)" stroke="rgba(52,211,153,0.20)" />

  <g opacity="0.7">
    <path d="M220 700 C 380 640, 520 730, 700 680 S 980 640, 1180 690 S 1360 650, 1440 610" fill="none" stroke="rgba(34,211,238,0.55)" stroke-width="4" />
    <path d="M240 250 C 420 280, 560 210, 700 250 S 980 330, 1180 290 S 1360 370, 1440 320" fill="none" stroke="rgba(52,211,153,0.50)" stroke-width="4" />
  </g>

  <g opacity="0.95">
    <circle cx="380" cy="420" r="26" fill="rgba(52,211,153,0.22)" stroke="rgba(52,211,153,0.35)" />
    <circle cx="560" cy="360" r="20" fill="rgba(34,211,238,0.20)" stroke="rgba(34,211,238,0.32)" />
    <circle cx="720" cy="470" r="24" fill="rgba(148,163,184,0.20)" stroke="rgba(148,163,184,0.28)" />
    <circle cx="940" cy="410" r="22" fill="rgba(34,211,238,0.18)" stroke="rgba(34,211,238,0.30)" />
    <circle cx="1160" cy="460" r="28" fill="rgba(52,211,153,0.20)" stroke="rgba(52,211,153,0.34)" />
  </g>
</svg>

