<svg width="1600" height="900" viewBox="0 0 1600 900" fill="none" xmlns="http://www.w3.org/2000/svg">
  <defs>
    <linearGradient id="bg" x1="80" y1="40" x2="1500" y2="860" gradientUnits="userSpaceOnUse">
      <stop stop-color="#07130F"/>
      <stop offset="1" stop-color="#061018"/>
    </linearGradient>
    <linearGradient id="flow" x1="340" y1="160" x2="1220" y2="700" gradientUnits="userSpaceOnUse">
      <stop stop-color="#34D399"/>
      <stop offset="1" stop-color="#22D3EE"/>
    </linearGradient>
  </defs>
  <rect width="1600" height="900" rx="42" fill="url(#bg)"/>
  <path d="M240 680C370 610 470 590 620 560C770 530 900 480 1030 430C1160 380 1260 320 1360 230"
    stroke="url(#flow)" stroke-width="7" stroke-linecap="round"/>
  <path d="M280 250C420 360 560 420 700 460C840 500 980 520 1140 550C1260 570 1320 620 1380 700"
    stroke="#34D399" stroke-opacity="0.62" stroke-width="4" stroke-dasharray="10 10" stroke-linecap="round"/>
  <g opacity="0.55" stroke="#64748B" stroke-width="1">
    <path d="M220 180H1380"/>
    <path d="M220 280H1380"/>
    <path d="M220 380H1380"/>
    <path d="M220 480H1380"/>
    <path d="M220 580H1380"/>
    <path d="M220 680H1380"/>
    <path d="M220 180V720"/>
    <path d="M360 180V720"/>
    <path d="M500 180V720"/>
    <path d="M640 180V720"/>
    <path d="M780 180V720"/>
    <path d="M920 180V720"/>
    <path d="M1060 180V720"/>
    <path d="M1200 180V720"/>
    <path d="M1340 180V720"/>
  </g>
  <g fill="#E2E8F0">
    <circle cx="620" cy="560" r="10"/>
    <circle cx="1030" cy="430" r="12"/>
    <circle cx="1260" cy="320" r="9"/>
    <circle cx="1140" cy="550" r="11"/>
  </g>
  <g fill="#34D399" fill-opacity="0.25">
    <circle cx="500" cy="420" r="140"/>
    <circle cx="980" cy="520" r="180"/>
  </g>
</svg>
