<svg xmlns="http://www.w3.org/2000/svg" width="1600" height="900" viewBox="0 0 1600 900">
  <defs>
    <linearGradient id="bg" x1="0" y1="0" x2="1" y2="1">
      <stop offset="0%" stop-color="#020617" />
      <stop offset="100%" stop-color="#042f2e" />
    </linearGradient>
  </defs>
  <rect width="100%" height="100%" fill="url(#bg)" />
  <rect x="110" y="120" width="1380" height="660" rx="28" fill="rgba(148,163,184,0.06)" stroke="rgba(34,211,238,0.22)" />

  <g opacity="0.85" fill="none" stroke-width="6">
    <path d="M220 710 L400 590 L560 640 L720 520 L900 620 L1080 500 L1260 560 L1410 430" stroke="rgba(34,211,238,0.65)" />
  </g>

  <g opacity="0.95">
    <circle cx="400" cy="590" r="14" fill="rgba(52,211,153,0.85)" />
    <circle cx="560" cy="640" r="14" fill="rgba(34,211,238,0.85)" />
    <circle cx="720" cy="520" r="14" fill="rgba(52,211,153,0.85)" />
    <circle cx="900" cy="620" r="14" fill="rgba(251,191,36,0.85)" />
    <circle cx="1080" cy="500" r="14" fill="rgba(251,113,133,0.82)" />
    <circle cx="1260" cy="560" r="14" fill="rgba(34,211,238,0.85)" />
    <circle cx="1410" cy="430" r="14" fill="rgba(52,211,153,0.85)" />
  </g>

  <g opacity="0.55">
    <rect x="220" y="240" width="1160" height="230" rx="24" fill="rgba(255,255,255,0.02)" stroke="rgba(148,163,184,0.16)" />
    <path d="M260 420 C 420 360, 560 460, 720 410 S 980 360, 1160 410 S 1320 370, 1360 330" fill="none" stroke="rgba(52,211,153,0.55)" stroke-width="4" />
  </g>
</svg>

